/* XPM */
static char *sparkleunity16[] = {
/* columns rows colors chars-per-pixel */
"16 16 113 2 ",
"   c #409905",
".  c #649817",
"X  c #4C9421",
"o  c #65A92F",
"O  c #64B522",
"+  c #7CB124",
"@  c #73B93C",
"#  c #ADA528",
"$  c #C39A37",
"%  c #D2A123",
"&  c #D2A322",
"*  c #D3A521",
"=  c #D8A621",
"-  c #DDAC27",
";  c #D7B025",
":  c #DAB42F",
">  c #DDB42D",
",  c #D7AB33",
"<  c #D9AB37",
"1  c #DCBD30",
"2  c #E3B325",
"3  c #E5B932",
"4  c #EEC533",
"5  c #EBC23B",
"6  c #E7D139",
"7  c #E2D13F",
"8  c #E8D33D",
"9  c #98AA56",
"0  c #BEA743",
"q  c #AABD40",
"w  c #A2B64B",
"e  c #DFB543",
"r  c #DDBA42",
"t  c #D7BD57",
"y  c #E3B940",
"u  c #E1BE5B",
"i  c #C9B171",
"p  c #B1C866",
"a  c #D8C146",
"s  c #E2C645",
"d  c #EBC64A",
"f  c #E3C84B",
"g  c #E7CB48",
"h  c #E5CB58",
"j  c #EDE246",
"k  c #EDE15E",
"l  c #F2E456",
"z  c #D4C271",
"x  c #E1CD61",
"c  c #E3CC65",
"v  c #EDD766",
"b  c #ECDC65",
"n  c #EAD66E",
"m  c #ECDB69",
"M  c #E5CC73",
"N  c #EBCD74",
"B  c #E7C97A",
"V  c #E6CC7B",
"C  c #E8CB7A",
"Z  c #E7D170",
"A  c #EFD273",
"S  c #E8D174",
"D  c #F0D372",
"F  c #F2E461",
"G  c #F6EA62",
"H  c #F1E56E",
"J  c #DFCD8E",
"K  c #E5C982",
"L  c #EBD084",
"P  c #ECD881",
"I  c #EDD986",
"U  c #EFD886",
"Y  c #E9D789",
"T  c #F0D582",
"R  c #E6D79C",
"E  c #EDDC98",
"W  c #ECDE9D",
"Q  c #F1DF95",
"!  c #F1DD98",
"~  c #F7EC80",
"^  c #F2E68C",
"/  c #F0E29E",
"(  c #F5EB9D",
")  c #E5D4A4",
"_  c #E1DFA6",
"`  c #E5D6AA",
"'  c #E5DAAA",
"]  c #ECDCAD",
"[  c #E5DBB6",
"{  c #EADEB3",
"}  c #E4DFB8",
"|  c #EDE0AF",
" . c #F5E3A4",
".. c #F2E5A4",
"X. c #F4E9A8",
"o. c #EEE0B3",
"O. c #EBE2B5",
"+. c #EEE5B7",
"@. c #E6D9C2",
"#. c #F5EBC8",
"$. c #F4EBCD",
"%. c #F9F1C6",
"&. c #FAF3CF",
"*. c #EBE1D3",
"=. c #ECE3D7",
"-. c #F1E9D2",
";. c #F2EBDC",
":. c #F3ECDC",
">. c #F8F2E2",
",. c #F8F3E8",
"<. c #F8F3E9",
"1. c #F8F3EA",
"2. c None",
/* pixels */
"2.2.2.2.2.>.$.E h s c 2.2.2.2.2.",
"2.2.2.,.;.@.2.2.2.2.t R -.2.2.2.",
"2.2.,.*.2.2.2.2.2.2.2.2.] I 2.2.",
"2.,.=.2.2.2.%.v g I 2.2.2.5 d 2.",
"2.:.2.2.2.&.W x q p _  .2.2.3 2.",
"#.` 2.2.2...' } @ O + a 2.2.- y ",
"P 2.2.2.2.+.[ O.o   . # 2.2.2.< ",
"f 2.2.2.2.Q M D w X 9 0 2.2.2.< ",
"Y 2.2.2.2.4 > y u z J i 2.2.2.r ",
"| 2.2.2.2.2 & & $ 2.2.2.2.2.2.Z ",
"O.) 2.2.2.= * ; 2.2.2.2.2.2.X./ ",
"2.o.2.2.2.: 1 6 2.2.2.2.2.2.( 2.",
"2.! A 2.2.8 g j 2.2.2.2.2.~ ^ 2.",
"2.2.T N 2.2.2.2.2.2.2.2.G H 2.2.",
"2.2.2.L C B 2.2.2.2.F l k 2.2.2.",
"2.2.2.2.2.K V S n m b 2.2.2.2.2."
};
