/* XPM */
static char *sparkleunity32[] = {
/* columns rows colors chars-per-pixel */
"32 32 201 2 ",
"   c #228400",
".  c #2C8E01",
"X  c #358F07",
"o  c #2F9401",
"O  c #389F08",
"+  c #3EA40A",
"@  c #4B8710",
"#  c #48A00D",
"$  c #55A30D",
"%  c #54AF1A",
"&  c #4CB314",
"*  c #418D23",
"=  c #4D9222",
"-  c #6A8A2B",
";  c #63B924",
":  c #78BA36",
">  c #60C125",
",  c #71C22F",
"<  c #76C23C",
"1  c #7BAC45",
"2  c #90A419",
"3  c #B18623",
"4  c #BC9127",
"5  c #93A42A",
"6  c #87B624",
"7  c #96AD34",
"8  c #8BB13A",
"9  c #88A536",
"0  c #B0BE32",
"q  c #B9A539",
"w  c #D4A11F",
"e  c #C19422",
"r  c #C59924",
"t  c #D29F23",
"y  c #C39833",
"u  c #C9A62A",
"i  c #D6A624",
"p  c #D9A722",
"a  c #D6AC22",
"s  c #DCAB23",
"d  c #DAAC28",
"f  c #D3A22C",
"g  c #C9BA2E",
"h  c #DCB625",
"j  c #DCBC2B",
"k  c #C9A63A",
"l  c #D7AD34",
"z  c #CBB433",
"x  c #DFBD37",
"c  c #E1AF29",
"v  c #E3B325",
"b  c #E4B62D",
"n  c #EBBF28",
"m  c #E9BB26",
"M  c #E4B93A",
"N  c #DFC12A",
"B  c #E3C52E",
"V  c #EAC02C",
"C  c #E7CC36",
"Z  c #E2C73E",
"A  c #E9C93A",
"S  c #F1CA34",
"D  c #EAD435",
"F  c #EEDC3C",
"G  c #F0E13F",
"H  c #AB8F4C",
"J  c #86AA42",
"K  c #91A948",
"L  c #84B443",
"P  c #90BD58",
"I  c #A8A840",
"U  c #BCA35C",
"Y  c #A7B653",
"T  c #AEAB69",
"R  c #B6A06C",
"E  c #C29E41",
"W  c #C6A54E",
"Q  c #C6BA48",
"!  c #D8B849",
"~  c #C7A957",
"^  c #DBB252",
"/  c #E1B849",
"(  c #E1BB58",
")  c #DABB65",
"_  c #CAAE74",
"`  c #D7BB78",
"'  c #D8C944",
"]  c #E9C244",
"[  c #E6CC49",
"{  c #F2CD48",
"}  c #EFDD41",
"|  c #E5CC53",
" . c #E9C956",
".. c #EDDA56",
"X. c #ECD85B",
"o. c #F1D05C",
"O. c #EFE241",
"+. c #F4E545",
"@. c #F4EB47",
"#. c #F3E449",
"$. c #F6EA4B",
"%. c #FAF149",
"&. c #EEE259",
"*. c #F5E65A",
"=. c #C1C264",
"-. c #D8C369",
";. c #DAC47A",
":. c #E5CD6C",
">. c #EACB6A",
",. c #E4C564",
"<. c #E9D264",
"1. c #EDD46D",
"2. c #ECDC6A",
"3. c #E9D667",
"4. c #F0D168",
"5. c #E5C671",
"6. c #E5CA75",
"7. c #EACB73",
"8. c #E8CD7B",
"9. c #E5C779",
"0. c #EBD475",
"q. c #EAD37A",
"w. c #EAD97C",
"e. c #E5D677",
"r. c #F1D673",
"t. c #F4DB7B",
"y. c #F6DB74",
"u. c #EEE36D",
"i. c #F7EC6D",
"p. c #F4E761",
"a. c #F3E678",
"s. c #C3A888",
"d. c #C8B082",
"f. c #C6AD91",
"g. c #CBB69D",
"h. c #BBC183",
"j. c #DBC789",
"k. c #CCD28F",
"l. c #D9C395",
"z. c #E9CE83",
"x. c #E5CC89",
"c. c #EAD485",
"v. c #EBDB85",
"b. c #EAD38B",
"n. c #EEDC8B",
"m. c #E5D386",
"M. c #F5DB86",
"N. c #E6CD92",
"B. c #E5D195",
"V. c #EDDB93",
"C. c #EDDE9B",
"Z. c #E7D79C",
"A. c #F2DD95",
"S. c #EFE48D",
"D. c #F6EC84",
"F. c #F4E889",
"G. c #EEE19E",
"H. c #F4E395",
"J. c #F1E39D",
"K. c #F4EA9D",
"L. c #D7CBA9",
"P. c #D7CBA5",
"I. c #D6CCB2",
"U. c #EDDEA7",
"Y. c #EADCAB",
"T. c #E9D6A4",
"R. c #E2D4BC",
"E. c #ECDFB7",
"W. c #EEE1A6",
"Q. c #EEE2AA",
"!. c #F3E4A5",
"~. c #F6EBA4",
"^. c #F4EAAB",
"/. c #F4EAAB",
"(. c #EDE1B4",
"). c #EBE1BC",
"_. c #F1E4B3",
"`. c #F6EAB4",
"'. c #F1E6BE",
"]. c #F5ECBA",
"[. c #EADEC2",
"{. c #E7DCCD",
"}. c #EDE5C1",
"|. c #EDE4C9",
" X c #F3EAC4",
".X c #F4ECCD",
"XX c #F5EBC3",
"oX c #F9F0C6",
"OX c #EFE7D9",
"+X c #F2EBD2",
"@X c #F3EAD9",
"#X c #F6F1DC",
"$X c #FBF5DD",
"%X c #F8F1D6",
"&X c #F7F1E4",
"*X c #FAF5EB",
"=X c #FEFBEE",
"-X c #FBF6E3",
";X c #FEFDF5",
":X c #FFFEF9",
">X c None",
/* pixels */
">X>X>X>X>X>X>X>X>X>X>X>X@X@XXX^.n.1. .:.>X>X>X>X>X>X>X>X>X>X>X>X",
">X>X>X>X>X>X>X>X>X@X*X=X-XoXJ.0.[ B B Z | :.m.>X>X>X>X>X>X>X>X>X",
">X>X>X>X>X>X>X@X*X;X-X[.l._ >X>X>X>Xk z ! <.c.Y.}.>X>X>X>X>X>X>X",
">X>X>X>X>X>X&X;X*XR.s.>X>X>X>X>X>X>X>X>X>XW j.'.&X@X>X>X>X>X>X>X",
">X>X>X>X>X*X:XOXf.>X>X>X>X>X>X>X>X>X>X>X>X>X>Xl.|..X_.>X>X>X>X>X",
">X>X>X>X*X:X{.>X>X>X>X>X>X>X>X>X>X>X>X>X>X>X>X>X>Xb.t.0.>X>X>X>X",
">X>X>X&X:X{.>X>X>X>X>X>X>X>X>X>X>X>X>X>X>X>X>X>X>X>X] S  .>X>X>X",
">X>X@X:XOX>X>X>X>X>X>X;X$X^.2.D A [ 3.C. X&X>X>X>X>X>Xn S >.>X>X",
">X>X*X*Xg.>X>X>X>X>X>X-X`.e.[ Z Q Q -.Z.|.$X%X>X>X>X>Xv n / >X>X",
">X@X;X[.>X>X>X>X>X>X>X].Q.j.v.6.8 , : P k.A.H.V.>X>X>X>Xc b ,.>X",
">X&X.Xd.>X>X>X>X>X>X>XK.Q.P.'.Y.L > < ; % 0 { 4.>X>X>X>Xp c / >X",
">XoXB.>X>X>X>X>X>X>X>XJ.U.L.%XOX1 & % 6 $ # g M E >X>X>X>Xp b >X",
"_.H.) >X>X>X>X>X>X>X>XW.(.I.$X+X1 + + $ 2 X 7 c e >X>X>X>Xi d ) ",
"V.X.k >X>X>X>X>X>X>X>X'.|.L.`.~.J o o . 5 @ 9 d 3 >X>X>X>Xf t ^ ",
"<.B >X>X>X>X>X>X>X>X>X'.C.;.M.M.=.X     K - I t >X>X>X>X>X>Xw / ",
"| Z >X>X>X>X>X>X>X>X>Xr. .! o.<.q.Y = * h.T ) k >X>X>X>X>X>Xw ! ",
"0.0.>X>X>X>X>X>X>X>X>XS m l ]  .,.>.9.j.Z.Q.b.H >X>X>X>X>X>Xd ! ",
"Q.Q.>X>X>X>X>X>X>X>X>XV v u b M / ( ,.8.b.x.R >X>X>X>X>X>X>Xx | ",
"'._.` >X>X>X>X>X>X>X>Xv h r w a y E W ~ R >X>X>X>X>X>X>X>Xq.| 6.",
").Q.j.>X>X>X>X>X>X>X>Xv p 4 w w >X>X>X>X>X>X>X>X>X>X>X>X>Xn.0.b.",
">XQ.B.>X>X>X>X>X>X>X>Xp w 4 w a >X>X>X>X>X>X>X>X>X>X>X>X>XK.H.>X",
">X).|.j.>X>X>X>X>X>Xp w a a h B u >X>X>X>X>X>X>X>X>X>X>X].^./.>X",
">X|.+XT.>X>X>X>X>X>Xi a h j B D z >X>X>X>X>X>X>X>X>X>X>X~.~.(.>X",
">X>X'.W.5.>X>X>X>X>X>XM N ! } G q >X>X>X>X>X>X>X>X>X>X~.F.K.>X>X",
">X>XY.H.r.>X>X>X>X>X>XD D ' %.@.>X>X>X>X>X>X>X>X>X>X>XD.D.W.>X>X",
">X>X>XA.y.>.>X>X>X>X>XF +.' %.@.>X>X>X>X>X>X>X>X>X>Xa.i.S.>X>X>X",
">X>X>X>XM.r.>.>X>X>X>X>X>X>X>X>X>X>X>X>X>X>X>X>X>Xi.*.a.>X>X>X>X",
">X>X>X>X>XV.r.7.9.>X>X>X>X>X>X>X>X>X>X>X>X>X>XD.*.%.i.>X>X>X>X>X",
">X>X>X>X>X>Xb.z.7.9.z.>X>X>X>X>X>X>X>X>X>XD.p.+.#.u.>X>X>X>X>X>X",
">X>X>X>X>X>X>XN.z.6.5.5.8.c.>X>X>X>XF.a...+.+.&.e.>X>X>X>X>X>X>X",
">X>X>X>X>X>X>X>X>XN.x.9.5.:.>.<.<.X.....&.u.e.>X>X>X>X>X>X>X>X>X",
">X>X>X>X>X>X>X>X>X>X>X>XN.b.m.e.q.q.w.w.>X>X>X>X>X>X>X>X>X>X>X>X"
};
