/* XPM */
static char *_4ffa5e18f7a4559b2d241210b59ebc9[] = {
/* columns rows colors chars-per-pixel */
"16 16 104 2 ",
"   c #002E5D",
".  c #00345C",
"X  c #003A64",
"o  c #003C67",
"O  c #003D69",
"+  c #003F68",
"@  c #003F6A",
"#  c #004069",
"$  c #014368",
"%  c #004369",
"&  c #00406A",
"*  c #00406C",
"=  c #00436C",
"-  c #00446C",
";  c #00456D",
":  c #00486F",
">  c #004A71",
",  c #024B71",
"<  c #004A72",
"1  c #004C72",
"2  c #004D73",
"3  c #034D74",
"4  c #004F74",
"5  c #165274",
"6  c #185A7D",
"7  c #1A5D7F",
"8  c #215C7A",
"9  c #275D7A",
"0  c #2D6583",
"q  c #346B8B",
"w  c #3F7591",
"e  c #0079AB",
"r  c #007EAE",
"t  c #007FAE",
"y  c #48738C",
"u  c #0182AD",
"i  c #0081B0",
"p  c #0082B0",
"a  c #0083B2",
"s  c #0084B1",
"d  c #0185B2",
"f  c #0086B3",
"g  c #0186B3",
"h  c #0087B3",
"j  c #0287B3",
"k  c #0288B3",
"l  c #0388B4",
"z  c #058AB5",
"x  c #078BB5",
"c  c #088BB5",
"v  c #098BB5",
"b  c #0A8BB5",
"n  c #0B8BB5",
"m  c #0A8CB5",
"M  c #0B8CB5",
"N  c #148AB0",
"B  c #118DB6",
"V  c #128EB6",
"C  c #178EB5",
"Z  c #0D91BE",
"A  c #1C91B8",
"S  c #2A96BB",
"D  c #3096B8",
"F  c #359BBD",
"G  c #3A9DBF",
"H  c #33A4C6",
"J  c #00A5E5",
"K  c #00A8E5",
"L  c #02ABE5",
"P  c #00A8E6",
"I  c #00AAE6",
"U  c #04ABE4",
"Y  c #01ACE6",
"T  c #00ACE7",
"R  c #04ADE5",
"E  c #05ADE6",
"W  c #05ADE7",
"Q  c #06ADE6",
"!  c #06AEE7",
"~  c #0EADE3",
"^  c #0AACE4",
"/  c #09AEE6",
"(  c #0BAEE6",
")  c #0BAFE6",
"_  c #0DAFE6",
"`  c #0EAFE6",
"'  c #00A9E9",
"]  c #00AAE8",
"[  c #00A9EA",
"{  c #00ADEC",
"}  c #0DB0E6",
"|  c #0EB0E6",
" . c #12B6ED",
".. c #03B4F1",
"X. c #00B4F6",
"o. c #21B7EA",
"O. c #33B6E3",
"+. c #36B7E4",
"@. c #32B8E8",
"#. c #4BA5C4",
"$. c #41BAE3",
"%. c #29C5F9",
"&. c #48C2EB",
"*. c None",
/* pixels */
"*.*.*.*.*.*.*.*.*.*.+.^ *.*.*.*.",
"*.*.*.*.*.*.*.%.~ ! T T P *.*.*.",
"*.*.*.*.7 # *.*.X.U | | U J *.*.",
"*.*.+ = = 4 . *.*...L | | U P *.",
"*.q X 2 4 : @ # *.*.{ ! | | ] @.",
"*.6 = 2 , 4 *.*.*.*.*.T ) ) P *.",
"*., , 2 X w *.*.*.*.*.$.] ! ) *.",
"*.# 2 2 + *.*.*.*.*.*.*.] ] o.*.",
"*.+ 2 , = *.*.*.*.*.*.&. .O.*.*.",
"*.8 @ : 5 *.*.*.*.*.*.*.*.D *.*.",
"*.*.0   y #.p *.*.*.C N u t *.*.",
"*.*.*.9 *.H u g z g g g g A *.*.",
"*.*.*.*.*.Z g M z b b b p G *.*.",
"*.*.*.*.*.*.t g M b b k e *.*.*.",
"*.*.*.*.*.*.*.p g p g V S *.*.*.",
"*.*.*.*.*.*.*.*.V F *.*.*.*.*.*."
};
