/* XPM */
static char *_60124793c9d44038d964a7f195dc128[] = {
/* columns rows colors chars-per-pixel */
"64 64 89 1 ",
"  c #002D5B",
". c #00305F",
"X c #003562",
"o c #003B66",
"O c #003E6A",
"+ c #00436C",
"@ c #09466E",
"# c #00486F",
"$ c #014671",
"% c #004D73",
"& c #0C4D73",
"* c #144971",
"= c #005075",
"- c #0E5075",
"; c #125276",
": c #1A5374",
"> c #15567A",
", c #1A5679",
"< c #1E5A7C",
"1 c #245B7C",
"2 c #2D5D7A",
"3 c #315F7A",
"4 c #2F617C",
"5 c #34627E",
"6 c #215D80",
"7 c #295F80",
"8 c #276183",
"9 c #2D6585",
"0 c #356582",
"q c #3B6881",
"w c #366B89",
"e c #3B6888",
"r c #3C718F",
"t c #0077AB",
"y c #007CAD",
"u c #406A88",
"i c #447491",
"p c #4F7C96",
"a c #597C94",
"s c #0081AF",
"d c #0184B1",
"f c #0B86B2",
"g c #0389B4",
"h c #0A8BB5",
"j c #138CB6",
"k c #1A8EB6",
"l c #1D8EB8",
"z c #1C91B7",
"x c #1D92B9",
"c c #228CB6",
"v c #2191B7",
"b c #2392B9",
"n c #2C96BA",
"m c #3197BB",
"M c #3399BC",
"N c #3C9ABC",
"B c #419EBF",
"V c #48A0BF",
"C c #00A5E4",
"Z c #02ACE7",
"A c #0CAFE6",
"S c #00A6E9",
"D c #01AAE8",
"F c #15AEE6",
"G c #1CAFE6",
"H c #14AEE8",
"J c #0DB0E6",
"K c #16B0E6",
"L c #1CB2E5",
"P c #24B3E5",
"I c #2CB4E5",
"U c #34B5E4",
"Y c #3BB7E6",
"T c #39B9E5",
"R c #3CBBEB",
"E c #409FC0",
"W c #47A1C0",
"Q c #4CA3C1",
"! c #55A5C2",
"~ c #62ACC7",
"^ c #45BAE4",
"/ c #4ABAE1",
"( c #42BCEA",
") c #4EBFE8",
"_ c #58BDE1",
"` c #69BFE0",
"' c #64C0E0",
"] c #65C7EC",
"[ c None",
/* pixels */
"[[[[[[[[[[[[[[[[[[[[[[[[[[[[[[[[[[[[[[[[[[[[[[I_[[[[[[[[[[[[[[[[",
"[[[[[[[[[[[[[[[[[[[[[[[[[[[[[[[[[[[[[[[[[[[UPZZDI[[[[[[[[[[[[[[[",
"[[[[[[[[[[[[[[[[[[[[[[[[[[[[[[[[[[[[[[[[PKZDZAAASI[[[[[[[[[[[[[[",
"[[[[[[[[[[[[[[[[[[[[[[[[[[[[[[[[[[[[[PAZZZAAAAAAASY[[[[[[[[[[[[[",
"[[[[[[[[[[[[[[[[[[[[[[[[[[[[[[[[[IPADDZJJAAAAAAAJACP[[[[[[[[[[[[",
"[[[[[[[[[[[[[[[[[[[[[[[[[[[[[[UJZDZZJAJJAAAAAAAAJAJCC[[[[[[[[[[[",
"[[[[[[[[[[[[[[[[[[[[[[[[[[[AJDZZAJAAAAAAAAAAAAAAAAAJCL[[[[[[[[[[",
"[[[[[[[[[[[[[[[[[[[[[[[[[[[CCAAAAAAAAAAAAAAAAAAAAAAAJCG[[[[[[[[[",
"[[[[[[[[[[[[[[[[[[[[9;+-[[[[RCAAAAAAAAAAAAAAAAAAAAAAAAZC[[[[[[[[",
"[[[[[[[[[[[[[[[[[<%+O$%$@[[[[(CAJAAAAAAAAAAAAAAAAAAAAAAZC[[[[[[[",
"[[[[[[[[[[[[[w,%O+%=%%%%%+[[[[RCAJAAAAAAAAAAAAAAAAAAAAAJDZ[[[[[[",
"[[[[[[[[[[1;#O+%%%%%%%%%%$@[[[[RCZAAAAAAAAAAAAAAAAAAAAAAJZC[[[[[",
"[[[[[[[1%$$#%%%%%%%%%%%%%=$O[[[[]CZJJAAAAAAAAAAAAAAAAAAAAHZS[[[[",
"[[[[[[i %%%%%%%%%%%%%%%%%%%%+[[[[[CZJAAAAAAAAAAAAAAAAAAAAAAAS`[[",
"[[[[[[9o%%%%%%%%%%%%%%%%%%%%$O3[[[[DDJJAAAAAAAAAAAAAAAAAAAAJZS^[",
"[[[[[[;+%%%%%%%%%%%%=%%%%%%%%%o5[[[[ZZHJAAAAAAAAAAAAAAAAAAAAJDU[",
"[[[[[[+%%%%%%%%%%%%%%%%=%%%%%%%oe[[[[SDJAAAAAAAAAAAAAAAAAAAAAZ[[",
"[[[[[[X%%%=%%%%%%%%%%%%%%%%%%$O%.+[[[[FDJAAAAAAAAAAAAAAAAAAAZA[[",
"[[[[[8o%%%%%%%%%%%%%%%%%%%%%+-8[[[[[[[[FDJAAAAAAAAAAAAAAAAAADI[[",
"[[[[[>$%%%%%%%%%%%%%%%%%%%O&[[[[[[[[[[[[FDJAAAAAAAAAAAAAAAAAD^[[",
"[[[[[+#%%%%%%%=%%%%%%%%=$o5[[[[[[[[[[[[[[GDAAAAAAAAAAAAAAAAJD[[[",
"[[[[[o%%%%%%%%%%%%%%%%=#$[[[[[[[[[[[[[[[[[UDJJAAAAAAAAAAAAAZZ[[[",
"[[[[wo=%%%%%%%%%%%%%%%%X[[[[[[[[[[[[[[[[[[[FDJAAAAAAAAAAAAADP[[[",
"[[[[<+%%%%%%%%%%%%%%%%ou[[[[[[[[[[[[[[[[[[[[ZZAAAAAAAAAAAAADY[[[",
"[[[[&#%%%%%%%%%%%%%%%+&[[[[[[[[[[[[[[[[[[[[[[DJJAAAAAAAAAAJD[[[[",
"[[[[o%%%%%%%%%%%%%%%=Xa[[[[[[[[[[[[[[[[[[[[[[KZJAAAAAAAAAAAD[[[[",
"[[[io%%%%%%%%%%%%%%%%@[[[[[[[[[[[[[[[[[[[[[[['DJAAAAAAAAAAZK[[[[",
"[[[6+%%%%%%%%%%%%%%%o8[[[[[[[[[[[[[[[[[[[[[[[[DZAAAAAAAAAAZI[[[[",
"[[[&#%%%%%%%%%%%%%%=or[[[[[[[[[[[[[[[[[[[[[[[[KZAAAAAAAAAAD/[[[[",
"[[[$%%%%%%%%%%%%%%%%o[[[[[[[[[[[[[[[[[[[[[[[[[PZAAAAJAAAAAD[[[[[",
"[[[o%%%%%%%%%%%%%%%%$[[[[[[[[[[[[[[[[[[[[[[[[[IZAAAAAAAAAZA[[[[[",
"[[9o%%%%%%%%%%%%%%%#-[[[[[[[[[[[[[[[[[[[[[[[[[PZAAAAAAAAJDP[[[[[",
"[[>+%%%%%%%%%%%%%%%o9[[[[[[[[[[[[[[[[[[[[[[[[[LDJAAAAAAZZS)[[[[[",
"[[+%%%%%%=%%%%%%%%%Oq[[[[[[[[[[[[[[[[[[[[[[[[[JZJAAAZZZAI[[[[[[[",
"[[o%%%%%%%%%%%%%%%%O[[[[[[[[[[[[[[[[[[[[[[[[[[DJAZDDLI[[[[[[[[[[",
"[[7O%%%%%%%%%%%%%%$&[[[[[[[[[[[[[[[[[[[[[[[[[USDZPT[[[[[[[[[[[[[",
"[[[3+%%%%%%%%%%%%%$;[[[[[[[[[[[[[[[[[[[[[[[[[CP[[[[[[[[[[[[[[[[[",
"[[[[2O%%%%%%%%%%%=or[[E~[[[[[[[[[[[[[[[[[[[[[[[[[[[[[[mhy![[[[[[",
"[[[[[4O$=%%%%%%%%%o[[[xt[[[[[[[[[[[[[[[[[[[[[[[[[[Vbhdddd[[[[[[[",
"[[[[[[[O%=%%%%%%%#%[[[btd[[[[[[[[[[[[[[[[[[[[[[Njhsdghhdj[[[[[[[",
"[[[[[[[[X%%%%%%%%+<[[[dhsk[[[[[[[[[[[[[[[[[[njdsgghhhhhsM[[[[[[[",
"[[[[[[[[[++%%%%%%o0[[[shhsd[[[[[[[[[[[[[nxhssghhhhhhhhhsQ[[[[[[[",
"[[[[[[[[[[@+=%%%%o[[[WshhhgskW[[[[[[[[Mdddghhhhhhhhhhhhs[[[[[[[[",
"[[[[[[[[[[[++%%%%$[[[bdhhhhhgygjxklxjdsghhhhhhhhhhhhhhgh[[[[[[[[",
"[[[[[[[[[[[[*o=%$;[[[hghhhhhhhhgdggdghhhhhhhhhhhhhhhhhsb[[[[[[[[",
"[[[[[[[[[[[[[,O%+1[[[shhhhhhhhhhhhhhhhhhhhhhhhhhhhhhhhsW[[[[[[[[",
"[[[[[[[[[[[[[[@+op[[Qshhhhhhhhhhhhhhhhhhhhhhhhhhhhhhhhs[[[[[[[[[",
"[[[[[[[[[[[[[[[:X[[[nshhhhhhhhhhhhhhhhhhhhhhhhhhhhhhhgh[[[[[[[[[",
"[[[[[[[[[[[[[[[[3[[[jghhhhhhhhhhhhhhhhhhhhhhhhhhhhhhhgb[[[[[[[[[",
"[[[[[[[[[[[[[[[[[[[[dhhhhhhhhhhhhhhhhhhhhhhhhhhhhhhhhsN[[[[[[[[[",
"[[[[[[[[[[[[[[[[[[[Nyjhhhhhhhhhhhhhhhhhhhhhhhhhghhhhhs[[[[[[[[[[",
"[[[[[[[[[[[[[[[[[[[[yghhhhhhhhhhhhhhhhhhhhhhhhhhhhhhgs[[[[[[[[[[",
"[[[[[[[[[[[[[[[[[[[[[tghhhhhhhhhhhhhhhhhhhhhhhhhhhhhgj[[[[[[[[[[",
"[[[[[[[[[[[[[[[[[[[[[[dghhhhhhhhhhhhhhhhhhhhhhhhhhhhsM[[[[[[[[[[",
"[[[[[[[[[[[[[[[[[[[[[[[ydhjhhhhhhhhhhhhhhhhhhhhhhhhhyE[[[[[[[[[[",
"[[[[[[[[[[[[[[[[[[[[[[[[ddhhhhhhhhhhhhhhhhhhhhhhhhhhd[[[[[[[[[[[",
"[[[[[[[[[[[[[[[[[[[[[[[[[ssjhhhhhhhhhhhhhhhhhhhhhhhdg[[[[[[[[[[[",
"[[[[[[[[[[[[[[[[[[[[[[[[[[jsjhhhhhhhhhhhhhhhhhhhgdsdE[[[[[[[[[[[",
"[[[[[[[[[[[[[[[[[[[[[[[[[[[fshhhhhhhhhhhhhhjggsgjn[[[[[[[[[[[[[[",
"[[[[[[[[[[[[[[[[[[[[[[[[[[[[kshhhhhhhhhhhggsdkM[[[[[[[[[[[[[[[[[",
"[[[[[[[[[[[[[[[[[[[[[[[[[[[[[cthhhhhhhgyshb[[[[[[[[[[[[[[[[[[[[[",
"[[[[[[[[[[[[[[[[[[[[[[[[[[[[[[BthhggydhM[[[[[[[[[[[[[[[[[[[[[[[[",
"[[[[[[[[[[[[[[[[[[[[[[[[[[[[[[[NydgkM[[[[[[[[[[[[[[[[[[[[[[[[[[[",
"[[[[[[[[[[[[[[[[[[[[[[[[[[[[[[[[lx[[[[[[[[[[[[[[[[[[[[[[[[[[[[[["
};
