/* XPM */
static char *sparkleunity64[] = {
/* columns rows colors chars-per-pixel */
"64 64 238 2 ",
"   c #1D7C00",
".  c #1C7600",
"X  c #257407",
"o  c #9B7C37",
"O  c #89692F",
"+  c #A27C24",
"@  c #A07F32",
"#  c #977743",
"$  c #9B744D",
"%  c #248500",
"&  c #2A8D00",
"*  c #268900",
"=  c #2E9301",
"-  c #359A05",
";  c #3B8C1C",
":  c #3DA20B",
">  c #1F8000",
",  c #499212",
"<  c #42A60E",
"1  c #48AB12",
"2  c #58A914",
"3  c #4DB116",
"4  c #56B71C",
"5  c #76A718",
"6  c #499328",
"7  c #6B9737",
"8  c #69B02C",
"9  c #66A11F",
"0  c #69C62A",
"q  c #70C535",
"w  c #5DC320",
"e  c #7EA950",
"r  c #988934",
"t  c #A68328",
"y  c #B48924",
"u  c #BB9428",
"i  c #A98535",
"p  c #B89737",
"a  c #A49C2E",
"s  c #91B336",
"d  c #BAA638",
"f  c #B8B324",
"g  c #85AA17",
"h  c #D29F1E",
"j  c #D5A21E",
"k  c #D9A51F",
"l  c #C79923",
"z  c #CD9F33",
"x  c #CBA229",
"c  c #D6A523",
"v  c #D6A922",
"b  c #DBAC22",
"n  c #D5A42B",
"m  c #DAA928",
"M  c #DAB324",
"N  c #DDBA26",
"B  c #DBB929",
"V  c #C4A938",
"C  c #D5A938",
"Z  c #DDB737",
"A  c #C5BA30",
"S  c #E1AF23",
"D  c #E3B324",
"F  c #E7B925",
"G  c #E9BC27",
"H  c #E3B42B",
"J  c #EABD2B",
"K  c #E5B936",
"L  c #ABC23E",
"P  c #DFC22B",
"I  c #DBC032",
"U  c #E5C626",
"Y  c #E4C62B",
"T  c #EDC229",
"R  c #E6C92C",
"E  c #EEC327",
"W  c #F1C82D",
"Q  c #E6CB34",
"!  c #EACC3D",
"~  c #E6C538",
"^  c #F2CA38",
"/  c #EBD637",
"(  c #F1DE3B",
")  c #F3E33D",
"_  c #98934E",
"`  c #BA9649",
"'  c #BD9C55",
"]  c #AB8952",
"[  c #9AAB5B",
"{  c #B3AE52",
"}  c #B39469",
"|  c #B39371",
" . c #9AA166",
".. c #AFAC67",
"X. c #999F61",
"o. c #C39C4E",
"O. c #DDB54C",
"+. c #DAB546",
"@. c #DDBA57",
"#. c #CDA94F",
"$. c #E3BD47",
"%. c #E2BD59",
"&. c #C8AB68",
"*. c #CCB36A",
"=. c #D7B968",
"-. c #D6B873",
";. c #C5B179",
":. c #E2BF67",
">. c #90C551",
",. c #CDC24D",
"<. c #E4CB4B",
"1. c #E6C847",
"2. c #F2CE45",
"3. c #EAD649",
"4. c #F2D44C",
"5. c #E6CE5C",
"6. c #E9CA57",
"7. c #EBD45B",
"8. c #EBD456",
"9. c #F3D45E",
"0. c #F1CE52",
"q. c #F3E444",
"w. c #F9EC43",
"e. c #F5E848",
"r. c #FEF549",
"t. c #FEF749",
"y. c #F5E856",
"u. c #EDE359",
"i. c #DBC466",
"p. c #DBC779",
"a. c #D2C871",
"s. c #E4C464",
"d. c #E4CC62",
"f. c #E4C36C",
"g. c #E5CB6B",
"h. c #ECCD6C",
"j. c #ECCC65",
"k. c #EBD565",
"l. c #EDDB64",
"z. c #EAD36C",
"x. c #E8D768",
"c. c #F3D66A",
"v. c #E4C572",
"b. c #E6CA73",
"n. c #EACC73",
"m. c #E5CA7A",
"M. c #E9CC7B",
"N. c #E4C67C",
"B. c #EDD274",
"V. c #EDDB72",
"C. c #ECD37B",
"Z. c #E7D678",
"A. c #F2D574",
"S. c #F4DA74",
"D. c #F3DC7B",
"F. c #F1D579",
"G. c #F6EA67",
"H. c #F6EB77",
"J. c #EDE46F",
"K. c #BEA783",
"L. c #C3AC86",
"P. c #C1B086",
"I. c #C5B497",
"U. c #D3BFA5",
"Y. c #DAC686",
"T. c #DCCA9A",
"R. c #DBD097",
"E. c #E6CC87",
"W. c #E4D483",
"Q. c #EDDB85",
"!. c #ECDB8B",
"~. c #E9D288",
"^. c #F4DE83",
"/. c #F1D988",
"(. c #E2CC98",
"). c #E4D294",
"_. c #EBD694",
"`. c #EDDC94",
"'. c #E4D39B",
"]. c #E9D49C",
"[. c #EADB9D",
"{. c #E7D890",
"}. c #F2DD93",
"|. c #F4E789",
" X c #EEE298",
".X c #F3E394",
"XX c #F3E59C",
"oX c #F6EB99",
"OX c #F9F19C",
"+X c #EFE784",
"@X c #D6D0A7",
"#X c #E3CEA3",
"$X c #E6D2A4",
"%X c #ECDCA4",
"&X c #E5D3AB",
"*X c #ECDBAA",
"=X c #E9D7A2",
"-X c #E4D3B4",
";X c #E8D9B9",
":X c #F1DCA5",
">X c #EDE2AB",
",X c #ECE0A3",
"<X c #F2E4A4",
"1X c #F6EAA3",
"2X c #F2E4AB",
"3X c #F6EAAA",
"4X c #F8EFA0",
"5X c #FAF3A9",
"6X c #EDE3BB",
"7X c #ECE2B3",
"8X c #F2E6B4",
"9X c #F5EAB3",
"0X c #F4EBBC",
"qX c #F6EAB8",
"wX c #FAF3BB",
"eX c #E6DAC5",
"rX c #EEE3C4",
"tX c #EEE5CB",
"yX c #F3ECCC",
"uX c #F3EAC4",
"iX c #F9F2C4",
"pX c #FBF3C9",
"aX c #EFE6D2",
"sX c #F3EDD4",
"dX c #F2EBDB",
"fX c #F1E7D7",
"gX c #F9F2D1",
"hX c #F9F4DC",
"jX c #F5EEE3",
"kX c #F7F3E3",
"lX c #FDF9E4",
"zX c #F9F5EA",
"xX c #FEFBED",
"cX c #F8F4E7",
"vX c #FEFCF3",
"bX c #FFFEFA",
"nX c #FAF7F0",
"mX c None",
/* pixels */
"mXmXmXmXmXmXmXmXmXmXmXmXmXmXmXmXmXmXmXmXmXmXmXmXmXmX;XeXtXrX6X7X:X:X[.].'.).mXmXmXmXmXmXmXmXmXmXmXmXmXmXmXmXmXmXmXmXmXmXmXmXmXmX",
"mXmXmXmXmXmXmXmXmXmXmXmXmXmXmXmXmXmXmXmXmXmX;XaXjXcXxXlXgXiX3X.X^.V.7.2.! 1.5.Z.{.R.mXmXmXmXmXmXmXmXmXmXmXmXmXmXmXmXmXmXmXmXmXmX",
"mXmXmXmXmXmXmXmXmXmXmXmXmXmXmXmXmXmXmXmXfXcXvXxXxXlXhXgXqX1X|.D.k.4.! Y U U Y ~ <.5.Z.R.mXmXmXmXmXmXmXmXmXmXmXmXmXmXmXmXmXmXmXmX",
"mXmXmXmXmXmXmXmXmXmXmXmXmXmXmXmXmXmXfXvXvXvXxXxXlXhXpX9XXX^.B.d.<.Q U U Y Q ~ ! <.<.<.d.M.'.$XmXmXmXmXmXmXmXmXmXmXmXmXmXmXmXmXmX",
"mXmXmXmXmXmXmXmXmXmXmXmXmXmXmXmXfXvXvXvXxXxXxXlXgX*XY.*.' ' ` i i i u u x C Z <.<.<.5.d.i.Z.[.;XmXmXmXmXmXmXmXmXmXmXmXmXmXmXmXmX",
"mXmXmXmXmXmXmXmXmXmXmXmXmXmXeXzXbXvXvXxXxXlX;XL.] # mXmXmXmXmXmXmXmXmXmXmXmXt p #.O.i.z.W.{. X7XuXeXmXmXmXmXmXmXmXmXmXmXmXmXmXmX",
"mXmXmXmXmXmXmXmXmXmXmXmXmXdXbXbXvXvXvXjXU.} mXmXmXmXmXmXmXmXmXmXmXmXmXmXmXmXmXmXmXmX` =.{.>X6XuXsXkXfXmXmXmXmXmXmXmXmXmXmXmXmXmX",
"mXmXmXmXmXmXmXmXmXmXmX-XzXbXbXvXvXjXU.] mXmXmXmXmXmXmXmXmXmXmXmXmXmXmXmXmXmXmXmXmXmXmXmX' Y.uXkXcXzXzXdX-XmXmXmXmXmXmXmXmXmXmXmX",
"mXmXmXmXmXmXmXmXmXmXeXzXbXbXvXvXeX} mXmXmXmXmXmXmXmXmXmXmXmXmXmXmXmXmXmXmXmXmXmXmXmXmXmXmXmX&.;XzXcXkXsXuX-XmXmXmXmXmXmXmXmXmXmX",
"mXmXmXmXmXmXmXmXmXeXvXbXbXvXxXI.$ mXmXmXmXmXmXmXmXmXmXmXmXmXmXmXmXmXmXmXmXmXmXmXmXmXmXmXmXmXmXo.(.sXyX0X2X2X$XmXmXmXmXmXmXmXmXmX",
"mXmXmXmXmXmXmXmXeXnXbXbXbXjXK.mXmXmXmXmXmXmXmXmXmXmXmXmXmXmXmXmXmXmXmXmXmXmXmXmXmXmXmXmXmXmXmXmXmX-.2X2X}.D.^.(.mXmXmXmXmXmXmXmX",
"mXmXmXmXmXmXmX-XnXbXbXbXdX| mXmXmXmXmXmXmXmXmXmXmXmXmXmXmXmXmXmXmXmXmXmXmXmXmXmXmXmXmXmXmXmXmXmXmXmX#.B.S.c.0.c.(.mXmXmXmXmXmXmX",
"mXmXmXmXmXmXmXzXbXbXbXjX| mXmXmXmXmXmXmXmXmXmXmXmXmXmXmXmXmXmXmXmXmXmXmXmXmXmXmXmXmXmXmXmXmXmXmXmXmXmX+.0.2.^ W c.mXmXmXmXmXmXmX",
"mXmXmXmXmXmXjXbXbXbXjX| mXmXmXmXmXmXmXmXmXmXbXbXbXvXxXlXpXqXXXH.l.4.<.8.V.Q.XXmXmXmXmXmXmXmXmXmXmXmXmXmXn ^ W W W C.mXmXmXmXmXmX",
"mXmXmXmXmXeXbXbXbXnXL.mXmXmXmXmXmXmXmXmXmXbXbXvXxXlXpX3X|.V.8.Q T R Q 1.5.Z.`.>X0XsXmXmXmXmXmXmXmXmXmXmXmXH W W T 1.E.mXmXmXmXmX",
"mXmXmXmXmXzXbXbXbXU.mXmXmXmXmXmXmXmXmXmXmXbXvXxXhXiX1X^.7.! Y Y Q ~ 1.<.5.Z.Q.[.7XyXhXzXmXmXmXmXmXmXmXmXmXmXD E G G 6.mXmXmXmXmX",
"mXmXmXmXfXbXvXvXaX$ mXmXmXmXmXmXmXmXmXmXmXbXvXhXpX3X|.l.! R Y ~ 1.<.5.d.x.p.W.=X6XsXhXcXzXmXmXmXmXmXmXmXmXmXn F J G J E.mXmXmXmX",
"mXmXmXmXvXvXvXzX| mXmXmXmXmXmXmXmXmXmXmXmXbXlXgX0XoX=.p.8.<.1.<.p a { { *.W.R.7XrXsXdXsXgXgXmXmXmXmXmXmXmXmXmXm G G F 1.(.mXmXmX",
"mXmXmXdXvXvXvX@XmXmXmXmXmXmXmXmXmXmXmXmXmXlXiXwXqX1X..@XD.B.x.5.r 0 q 0 8 s [ @XrX0X8X3X2X3X>XmXmXmXmXmXmXmXmXmXS G F D M.mXmXmX",
"mXmXmXzXvXlXsX} mXmXmXmXmXmXmXmXmXmXmXmXmXgX3X<X3X5XP.@X}.`.Q.W._ 0 0 q w w w 8 [ p.^.D.D.^.}.Y.mXmXmXmXmXmXmXmXn D D D $.mXmXmX",
"mXmXaXvXlXhXT.mXmXmXmXmXmXmXmXmXmXmXmXmXmXiXXXXX3X9XP.;X8X>X:X:X[ 0 w q >.q w 3 3 8 ,./ 2.9.S.M.mXmXmXmXmXmXmXmXmXS D S H E.mXmX",
"mXmXhXhXgX0X} mXmXmXmXmXmXmXmXmXmXmXmXmXmX0X.XXX,X9XP.;XyXuX0X6XX.4 w 4 8 >.>.3 3 : 2 A W ~ 0.h.' mXmXmXmXmXmXmXmXc S S S :.mXmX",
"mX;XhXpXwX).mXmXmXmXmXmXmXmXmXmXmXmXmXmXmXqX`. X>X9XK.;XgXsXdXdX .2 4 3 3 4 L g < : : 2 I U K 1.o.mXmXmXmXmXmXmXmXmXm S b K (.mX",
"mXeXpX9X1X*.mXmXmXmXmXmXmXmXmXmXmXmXmXmXmXqX[. X>X7XP.eXhXkXzXzX .3 3 3 1 < 3 I g - - = { J F J V mXmXmXmXmXmXmXmXmXc S c m E.mX",
"mXuX3XXX!.` mXmXmXmXmXmXmXmXmXmXmXmXmXmXmX8X X X7X6XP.eXkXcXcXhXX.1 1 < < < - 5 M , = & 8 $.D D l mXmXmXmXmXmXmXmXmXn m b k :.mX",
"mX9X.XD.g.i mXmXmXmXmXmXmXmXmXmXmXmXmXmXmX8X%X>X6XyXI.eXjXhXgXpXX.< - < - - = = f a = * 6 @.D b l mXmXmXmXmXmXmXmXmXz c c j %.mX",
"&X.XS.l.+.mXmXmXmXmXmXmXmXmXmXmXmXmXmXmXmX6X>X6XaXdXI.eXpX0XqXqX..- - - - = = & 5 Z , % ; i.b k u mXmXmXmXmXmXmXmXmXmXn j h C (.",
"*XS.8.2.V mXmXmXmXmXmXmXmXmXmXmXmXmXmXmXmXyXrXaXsXsXP.@X3XXXXXXXa., = = = & & * , ,.O   6 ,.c k y mXmXmXmXmXmXmXmXmXmXn h h n E.",
"=X7.! R u mXmXmXmXmXmXmXmXmXmXmXmXmXmXmXmXdXaXuX6X3X..).^.^.^.^.+X7 * * * * * % 6 g.r . 7 $.j h + mXmXmXmXmXmXmXmXmXmXz h h n E.",
"{.! U U u mXmXmXmXmXmXmXmXmXmXmXmXmXmXmXmXyX6X<X X!.&.b.S.S.S.D.^.a.; % * %     6 ~.r . ..Z j l O mXmXmXmXmXmXmXmXmXmXC j j S -.",
"M.R R ~ p mXmXmXmXmXmXmXmXmXmXmXmXmXmXmXmX2X!.F.c.c.o.i.9.c.c.A.F.^.{ :   .   . e *X# 7 p.O.Z l O mXmXmXmXmXmXmXmXmXmXC c c m -.",
"m.Q 3.5.p mXmXmXmXmXmXmXmXmXmXmXmXmXmXmXmX^.c.4.2./ V O.0.0.0.h.h.n.Z.a._ 6 ; 6 @X;X .Y.M.f.%.@ mXmXmXmXmXmXmXmXmXmXmX+.c m b b.",
"~.8.k.Z.` mXmXmXmXmXmXmXmXmXmXmXmXmXmXmXmX9.^ W W W p +.$.0.6.6.j.h.h.F.E.].(.&X:X:X*X:X_.~.&.O mXmXmXmXmXmXmXmXmXmXmX+.m m v p.",
"_.V.Q.`.o.mXmXmXmXmXmXmXmXmXmXmXmXmXmXmXmX2.W T T T u C K $.$.$.%.6.:.:.n.:.E.E._.[.:X*X2XE.# mXmXmXmXmXmXmXmXmXmXmXmX@.M M M b.",
"*X XXX2X&.mXmXmXmXmXmXmXmXmXmXmXmXmXmXmXmX^ T T J G l n J K $.$.$.%.%.:.:.v.M.E.~._.[.2X'.] mXmXmXmXmXmXmXmXmXmXmXmXmXs.Z B B E.",
";X2XqXuX*.mXmXmXmXmXmXmXmXmXmXmXmXmXmXmXmXT G F F F y n H H K Z O.O.$.@.:.:.b.n.~.!.!.;.# mXmXmXmXmXmXmXmXmXmXmXmXmXmXg.1.Z ~ E.",
";XiXuXqX-.mXmXmXmXmXmXmXmXmXmXmXmXmXmXmXmXJ J J D D y x M k b m C C +.O.O.%.f.i.a.&.] O mXmXmXmXmXmXmXmXmXmXmXmXmXmXmXB.<.1.<.R.",
"-XiX8X8XE.mXmXmXmXmXmXmXmXmXmXmXmXmXmXmXmXJ D D D S y l k k j c + O o o o o r # O mXmXmXmXmXmXmXmXmXmXmXmXmXmXmXmXmXmXZ.i.6.g.$X",
"mXuX>X>X).o.mXmXmXmXmXmXmXmXmXmXmXmXmXmXmXH D D S k y l j j j j + mXmXmXmXmXmXmXmXmXmXmXmXmXmXmXmXmXmXmXmXmXmXmXmXmX>XC.z.k.C.mX",
"mX6X>X,X%X#.mXmXmXmXmXmXmXmXmXmXmXmXmXmXmXH b S k k y l j h v j + mXmXmXmXmXmXmXmXmXmXmXmXmXmXmXmXmXmXmXmXmXmXmXmXmX2XQ.Z.V. XmX",
"mX;X>X%X%X-.mXmXmXmXmXmXmXmXmXmXmXmXmXmXmXm b b j k y l j j k M y mXmXmXmXmXmXmXmXmXmXmXmXmXmXmXmXmXmXmXmXmXmXmXmXmX2X XQ.+X*XmX",
"mX-X7X>X7XR.mXmXmXmXmXmXmXmXmXmXmXmXmXmXmXm k c j j y l k M M N y mXmXmXmXmXmXmXmXmXmXmXmXmXmXmXmXmXmXmXmXmXmXmXmXmX3XXX.XoX&XmX",
"mXmX6X7X6XrX-.mXmXmXmXmXmXmXmXmXmXmXmXmXm j j j j v v v M N N N B i mXmXmXmXmXmXmXmXmXmXmXmXmXmXmXmXmXmXmXmXmXmXmXiX3X1X1X9XmXmX",
"mXmX;XrXtXsX#XmXmXmXmXmXmXmXmXmXmXmXmXmXn j j j v v M N N N P P I t mXmXmXmXmXmXmXmXmXmXmXmXmXmXmXmXmXmXmXmXmXmXmX9X1X3X3X6XmXmX",
"mXmXmXsXdXsXrX*.mXmXmXmXmXmXmXmXmXmXmXmXn j k M M M N N N P Y / Q r mXmXmXmXmXmXmXmXmXmXmXmXmXmXmXmXmXmXmXmXmXmXiXoX4X4XwXmXmXmX",
"mXmXmXaXsXyXuX).mXmXmXmXmXmXmXmXmXmXmXmXn m M M M N N P Y / / ( / r mXmXmXmXmXmXmXmXmXmXmXmXmXmXmXmXmXmXmXmXmXmX3X.XoX4X8XmXmXmX",
"mXmXmX-XyXuX8XXX=.mXmXmXmXmXmXmXmXmXmXmXmX=.B B N Y d a./ / ( q.d mXmXmXmXmXmXmXmXmXmXmXmXmXmXmXmXmXmXmXmXmXmX5X|.oXoX4X&XmXmXmX",
"mXmXmXmXeXqX2X}./.#.mXmXmXmXmXmXmXmXmXmXmX`.I N U U d Z.) ) q.w.p mXmXmXmXmXmXmXmXmXmXmXmXmXmXmXmXmXmXmXmXmXiXOX+X|.oX>XmXmXmXmX",
"mXmXmXmXmXqX<X}.^.j.mXmXmXmXmXmXmXmXmXmXmXz.Q R Q / d 7.w.r.r.r.d mXmXmXmXmXmXmXmXmXmXmXmXmXmXmXmXmXmXmXmXmXOXH.+X|.OXmXmXmXmXmX",
"mXmXmXmXmX*XXX^.D.c.%.mXmXmXmXmXmXmXmXmXmX3.Q / ( ) d 3.t.t.r.r.d mXmXmXmXmXmXmXmXmXmXmXmXmXmXmXmXmXmXmXmX5XH.H.H.|.>XmXmXmXmXmX",
"mXmXmXmXmXmX2X^.S.c.c.:.mXmXmXmXmXmXmXmXmX/ / ( q.t.A 3.t.t.t.t.p mXmXmXmXmXmXmXmXmXmXmXmXmXmXmXmXmXmXmX5XH.G.H.H.XXmXmXmXmXmXmX",
"mXmXmXmXmXmXmX}.S.S.c.c.:.mXmXmXmXmXmXmXmXq.q.w.r.t.d 3.t.t.t.t.d mXmXmXmXmXmXmXmXmXmXmXmXmXmXmXmXmXmX5XG.G.G.H.OXmXmXmXmXmXmXmX",
"mXmXmXmXmXmXmX#X}.S.A.c.h.=.mXmXmXmXmXmXmXmXd V d d a { A V d V r mXmXmXmXmXmXmXmXmXmXmXmXmXmXmXmXmX5XG.y.G.G.+X$XmXmXmXmXmXmXmX",
"mXmXmXmXmXmXmXmX$X}.A.A.A.h.f.mXmXmXmXmXmXmXmXmXmXmXmXmXmXmXmXmXmXmXmXmXmXmXmXmXmXmXmXmXmXmXmXmXmXOXy.e.y.y.H.$XmXmXmXmXmXmXmXmX",
"mXmXmXmXmXmXmXmXmX$X}.F.F.A.B.b.p.mXmXmXmXmXmXmXmXmXmXmXmXmXmXmXmXmXmXmXmXmXmXmXmXmXmXmXmXmXmXwXH.q.e.y.t.J.'.mXmXmXmXmXmXmXmXmX",
"mXmXmXmXmXmXmXmXmXmX$X_.F.B.B.h.n.M.mXmXmXmXmXmXmXmXmXmXmXmXmXmXmXmXmXmXmXmXmXmXmXmXmXmXmXmXOXG.w.w.w.w.J.'.mXmXmXmXmXmXmXmXmXmX",
"mXmXmXmXmXmXmXmXmXmXmX$X}.F.M.n.n.n.N.E.mXmXmXmXmXmXmXmXmXmXmXmXmXmXmXmXmXmXmXmXmXmXmXmX5XH.q.) w.) e.V.T.mXmXmXmXmXmXmXmXmXmXmX",
"mXmXmXmXmXmXmXmXmXmXmXmXmX=X/.n.n.n.f.n.M./.mXmXmXmXmXmXmXmXmXmXmXmXmXmXmXmXmXmXmXmX4XH.3.) q.w.w.u.W.mXmXmXmXmXmXmXmXmXmXmXmXmX",
"mXmXmXmXmXmXmXmXmXmXmXmXmXmX$X~.M.n.n.b.f.f.M.~.`.<XmXmXmXmXmXmXmXmXmXmXmXmXwX5X+Xy.3.( ) ) ) w.J.R.mXmXmXmXmXmXmXmXmXmXmXmXmXmX",
"mXmXmXmXmXmXmXmXmXmXmXmXmXmXmXmX].E.M.b.v.v.:.:.f.b.M.Q.}.XXoX1X1X1XoX.X|.J.l.3.3.3.q.q.) w.u.W.mXmXmXmXmXmXmXmXmXmXmXmXmXmXmXmX",
"mXmXmXmXmXmXmXmXmXmXmXmXmXmXmXmXmX#X].E.M.v.v.f.f.f.s.s.s.d.5.d.5.5.<.8.3.3.3.4.e.u.e.e.J.W.R.mXmXmXmXmXmXmXmXmXmXmXmXmXmXmXmXmX",
"mXmXmXmXmXmXmXmXmXmXmXmXmXmXmXmXmXmXmXmX#X).E.M.b.g.g.g.g.d.d.5.7.5.7.7.7.8.u.y.u.l.Z.).mXmXmXmXmXmXmXmXmXmXmXmXmXmXmXmXmXmXmXmX",
"mXmXmXmXmXmXmXmXmXmXmXmXmXmXmXmXmXmXmXmXmXmX#X$X]._.~.B.Z.g.z.x.x.x.l.l.l.V.D.!.{.#XmXmXmXmXmXmXmXmXmXmXmXmXmXmXmXmXmXmXmXmXmXmX",
"mXmXmXmXmXmXmXmXmXmXmXmXmXmXmXmXmXmXmXmXmXmXmXmXmXmX$X$X=X[.].{.'.{.[.=X=X$XmXmXmXmXmXmXmXmXmXmXmXmXmXmXmXmXmXmXmXmXmXmXmXmXmXmX"
};
