/* XPM */
static char *a92e255868d34504d0de0070f958ed0f[] = {
/* columns rows colors chars-per-pixel */
"32 32 206 2 ",
"   c #003462",
".  c #003964",
"X  c #003B65",
"o  c #003866",
"O  c #003B66",
"+  c #003E67",
"@  c #003C68",
"#  c #003D68",
"$  c #003D69",
"%  c #003E68",
"&  c #003F68",
"*  c #003E69",
"=  c #00406A",
"-  c #00416A",
";  c #00416B",
":  c #00426A",
">  c #00426B",
",  c #00436B",
"<  c #00416C",
"1  c #00426C",
"2  c #00426D",
"3  c #00436D",
"4  c #00446C",
"5  c #00456D",
"6  c #00446E",
"7  c #00456E",
"8  c #00456F",
"9  c #00466E",
"0  c #00466F",
"q  c #00476F",
"w  c #09466C",
"e  c #00486F",
"r  c #094A6F",
"t  c #094B6F",
"y  c #004970",
"u  c #004A70",
"i  c #004B73",
"p  c #044A73",
"a  c #004C72",
"s  c #004C73",
"d  c #004D73",
"f  c #004E73",
"g  c #064C72",
"h  c #004E74",
"j  c #004F74",
"k  c #074E74",
"l  c #0D4C71",
"z  c #0D4F75",
"x  c #0F4F75",
"c  c #005075",
"v  c #095177",
"b  c #115276",
"n  c #155277",
"m  c #185475",
"M  c #11567A",
"N  c #19567A",
"B  c #19577B",
"V  c #2B546D",
"C  c #255B7A",
"Z  c #265B7A",
"A  c #235F7E",
"S  c #245F7F",
"D  c #2A5F7E",
"F  c #215F81",
"G  c #236081",
"H  c #296282",
"J  c #2E6886",
"K  c #2C6788",
"L  c #376F8D",
"P  c #3D7290",
"I  c #3E7491",
"U  c #0079AB",
"Y  c #007CAD",
"T  c #007DAD",
"R  c #007FAF",
"E  c #0080AF",
"W  c #0081B0",
"Q  c #0081B1",
"!  c #0082B0",
"~  c #0082B1",
"^  c #0083B1",
"/  c #0083B2",
"(  c #0084B1",
")  c #0185B1",
"_  c #0286B1",
"`  c #0084B2",
"'  c #0085B2",
"]  c #0084B3",
"[  c #0385B2",
"{  c #0186B2",
"}  c #0086B3",
"|  c #0187B3",
" . c #0287B3",
".. c #0287B4",
"X. c #0288B3",
"o. c #0088B5",
"O. c #0388B4",
"+. c #0488B4",
"@. c #0489B4",
"#. c #0589B4",
"$. c #0788B4",
"%. c #058AB4",
"&. c #078BB5",
"*. c #0A88B3",
"=. c #088BB5",
"-. c #098BB5",
";. c #0A8BB5",
":. c #0B8BB5",
">. c #098CB5",
",. c #0B8CB6",
"<. c #0B8DB6",
"1. c #0C8CB5",
"2. c #0C8CB6",
"3. c #0C8BB9",
"4. c #118CB6",
"5. c #178FB7",
"6. c #1B8DB3",
"7. c #1A8FB8",
"8. c #0F92BD",
"9. c #1790B7",
"0. c #1C91B8",
"q. c #1E92B8",
"w. c #2190B5",
"e. c #2595B9",
"r. c #2695BB",
"t. c #3997B9",
"y. c #3099BC",
"u. c #3899BC",
"i. c #399CBE",
"p. c #3B9EBF",
"a. c #409DBC",
"s. c #309EC1",
"d. c #3FA1C1",
"f. c #00A3E3",
"g. c #00A2E6",
"h. c #00A7E6",
"j. c #00AAE5",
"k. c #03ABE5",
"l. c #00A9E6",
"z. c #00A9E7",
"x. c #00AAE6",
"c. c #00ABE6",
"v. c #00ABE7",
"b. c #00ACE6",
"n. c #00ACE7",
"m. c #00ADE7",
"M. c #01ADE7",
"N. c #02ACE7",
"B. c #03ADE7",
"V. c #03AEE6",
"C. c #05ADE5",
"Z. c #06ADE5",
"A. c #04ACE6",
"S. c #04ADE6",
"D. c #07ADE6",
"F. c #06ADE7",
"G. c #04AEE6",
"H. c #06AEE6",
"J. c #07AFE6",
"K. c #06AEE7",
"L. c #08AAE5",
"P. c #09AFE6",
"I. c #0AAFE6",
"U. c #0BAFE6",
"Y. c #0CAFE6",
"T. c #0DAFE6",
"R. c #0EAFE6",
"E. c #00A5E8",
"W. c #00A6E8",
"Q. c #00A7EA",
"!. c #00A9E8",
"~. c #00A9E9",
"^. c #00ABE8",
"/. c #00A9EB",
"(. c #00ABEA",
"). c #00ABEB",
"_. c #00ACE8",
"`. c #05ADE8",
"'. c #14AEE5",
"]. c #0DB0E6",
"[. c #0EB0E6",
"{. c #0FB0E6",
"}. c #06B0E9",
"|. c #0CB2EA",
" X c #11B0E7",
".X c #12B0E6",
"XX c #15B1E6",
"oX c #19B1E5",
"OX c #1FB3E7",
"+X c #20B2E5",
"@X c #20B3E5",
"#X c #2AB4E4",
"$X c #2CB5E5",
"%X c #2DB6E4",
"&X c #35B5E4",
"*X c #34B6E4",
"=X c #34B7E4",
"-X c #3CB7E4",
";X c #3FBBE6",
":X c #38BBE8",
">X c #57AAC5",
",X c #41BDE7",
"<X c #59BEE1",
"1X c #51D3FF",
"2X c #69C2E0",
"3X c None",
/* pixels */
"3X3X3X3X3X3X3X3X3X3X3X3X3X3X3X3X3X3X3X3X3X3X=XOX3X3X3X3X3X3X3X3X",
"3X3X3X3X3X3X3X3X3X3X3X3X3X3X3X3X3X3X3X*XoXC.B.(.L.3X3X3X3X3X3X3X",
"3X3X3X3X3X3X3X3X3X3X3X3X3X3X3X3X$X{.B._.B.U.T.{.x.f.3X3X3X3X3X3X",
"3X3X3X3X3X3X3X3X3X3X3X3X3X3Xg.x.B.B.U.T.U.T.U.U.{.x.x.3X3X3X3X3X",
"3X3X3X3X3X3X3X3X3XS M 3 3X3X1X(.C.T.T.T.U.T.U.T.T.T.A.f.3X3X3X3X",
"3X3X3X3X3X3XA v 0 3 0 u & 3X3X3X(.C.T.T.T.U.T.U.T.T.T.x.x.,X3X3X",
"3X3X3XI > 0 3 e d d i h u & 3X3X3X(.A.T.U.T.U.T.T.T.T.T.U.E.2X3X",
"3X3X3Xn > d d d d d h h h i & V 3X3X`.(.{.U.T.U.T.U.U.U.T.U.(.*X",
"3X3X3X0 d d d d d d d d d d >   Z 3X3XE.B.{.U.T.U.T.U.T.U.C.C.3X",
"3X3X3X+ d d d d d d d d 0 3 J 3X3X3X3X3X(.x.{.U.T.U.T.U.T.B.@X3X",
"3X3XP X d d d d d d c 3 w 3X3X3X3X3X3X3X3X'.x.{.U.T.U.T.T.x.;X3X",
"3X3XF > d d d d d d 0 p 3X3X3X3X3X3X3X3X3X3XB.C.T.U.T.U.T.(.3X3X",
"3X3Xg u d d d d d d X 3X3X3X3X3X3X3X3X3X3X3X<X(.T.U.T.U.U.x.3X3X",
"3X3X> d d d d d d e k 3X3X3X3X3X3X3X3X3X3X3X3X_.U.T.U.T.B..X3X3X",
"3X3X+ d d d d d d > G 3X3X3X3X3X3X3X3X3X3X3X3XOX_.U.U.U.B.#X3X3X",
"3XK & d d d d d d + L 3X3X3X3X3X3X3X3X3X3X3X3X#XB.{.{.C.W.-X3X3X",
"3Xx 0 d h h h h d + 3X3X3X3X3X3X3X3X3X3X3X3X3XoX_._._.}. X3X3X3X",
"3Xx 3 d h u h u u 0 3X3X3X3X3X3X3X3X3X3X3X3X3XW.|.:X3X3X3X3X3X3X",
"3X3Xl 3 d d h h q t 3X3X3X3X3X3X3X3X3X3X3X3X3X3X3X3X3X3Xt.3X3X3X",
"3X3X3Xb 3 h h u > D 3X3.3X3X3X3X3X3X3X3X3X3X3X3X3Xw.| U u.3X3X3X",
"3X3X3X3XB & h h X 3X3XO.R 3X3X3X3X3X3X3X3Xa.6.| ^ | #.^ 3X3X3X3X",
"3X3X3X3X3XC o h & 3X3X] +.R 0.d.3X3Xp.5.| ^ | %.;.;.#.$.3X3X3X3X",
"3X3X3X3X3X3XH & t 3X3X^ :.;.| ^ O.O.^ | ;.;.;.;.;.;.| 0.3X3X3X3X",
"3X3X3X3X3X3X3Xm B 3Xs.^ ;.;.;.;.>.;.;.;.;.;.;.;.;.;.^ p.3X3X3X3X",
"3X3X3X3X3X3X3X3X3X3X8.$.;.;.;.;.;.;.;.;.;.;.;.;.;.;.R 3X3X3X3X3X",
"3X3X3X3X3X3X3X3X3X3X| | ;.;.;.;.;.;.;.;.;.;.;.;.;.;.| 3X3X3X3X3X",
"3X3X3X3X3X3X3X3X3X3X3XR | ;.;.;.;.;.;.;.;.;.;.;.;.| 4.3X3X3X3X3X",
"3X3X3X3X3X3X3X3X3X3X3X3X^ | :.;.;.;.;.;.;.;.;.*.;.R r.3X3X3X3X3X",
"3X3X3X3X3X3X3X3X3X3X3X3X3X$.| >.;.;.;.;.;.;.O.| ^ ^ >X3X3X3X3X3X",
"3X3X3X3X3X3X3X3X3X3X3X3X3X3XR E >.>.;.| ^ | ;.r.3X3X3X3X3X3X3X3X",
"3X3X3X3X3X3X3X3X3X3X3X3X3X3X3X7.R | | 5.y.3X3X3X3X3X3X3X3X3X3X3X",
"3X3X3X3X3X3X3X3X3X3X3X3X3X3X3X3X*.y.3X3X3X3X3X3X3X3X3X3X3X3X3X3X"
};
